# xmcd
#
# Track frame offsets: 
#        150
#        4186
#        23986
#        40601
#        56674
#        79652
#        135575
#        148970
#        175364
#        264665
#
# Disc length: 4542 seconds
#
# Revision: 0
# Processed by: cddbd v1.5.2PL0 Copyright (c) Steve Scherf et al.
# Submitted via: ExactAudioCopy v1.1
#
DISCID=8711bc0a
DTITLE=Allman Brothers - The Fillmore East - Last 3 Nites CD3
DYEAR=1900
DGENRE=Blues
TTITLE0=Bill Graham intro
TTITLE1=Statesboro Blues
TTITLE2=Don't keep me wonderin'
TTITLE3=Done somebody wrong
TTITLE4=One way out
TTITLE5=In memory of Elizabeth Reed
TTITLE6=Midnight rider
TTITLE7=Hot 'lanta
TTITLE8=Whipping post
TTITLE9=You don't love me
EXTD=
EXTT0=
EXTT1=
EXTT2=
EXTT3=
EXTT4=
EXTT5=
EXTT6=
EXTT7=
EXTT8=
EXTT9=
PLAYORDER=
